<?xml version="1.0" encoding="UTF-8"?>
<svg width="52px" height="52px" viewBox="0 0 52 52" version="1.1" xmlns="http://www.w3.org/2000/svg" xmlns:xlink="http://www.w3.org/1999/xlink">
    <title>Integration</title>
    <g id="Page-1" stroke="none" stroke-width="1" fill="none" fill-rule="evenodd">
        <g id="UI" transform="translate(-166.000000, -256.000000)" stroke="#333333" stroke-width="2">
            <g id="Group" transform="translate(167.000000, 257.000000)">
                <path d="M24.1935484,0 L2.41935484,0 C1.08387097,0 0,1.08387097 0,2.41935484 L0,23.3870968 L9.67741935,23.3870968 L9.67741935,22.5806452 C8.23225806,21.7435484 7.25806452,20.3387097 7.25806452,18.5483871 C7.25806452,15.8766129 9.42419355,13.7096774 12.0967742,13.7096774 C14.7685484,13.7096774 16.9354839,15.8766129 16.9354839,18.5483871 C16.9354839,20.3387097 15.9612903,21.7435484 14.516129,22.5806452 L14.516129,23.3870968 L24.1935484,23.3870968" id="Shape"></path>
                <path d="M0,25.8064516 L0,47.5806452 C0,48.916129 1.08387097,50 2.41935484,50 L23.3870968,50 L23.3870968,40.3225806 L22.5806452,40.3225806 C21.7435484,41.7677419 20.3387097,42.7419355 18.5483871,42.7419355 C15.8758065,42.7419355 13.7096774,40.575 13.7096774,37.9032258 C13.7096774,35.2314516 15.8758065,33.0645161 18.5483871,33.0645161 C20.3387097,33.0645161 21.7435484,34.0387097 22.5806452,35.483871 L23.3870968,35.483871 L23.3870968,25.8064516" id="Shape"></path>
                <path d="M25.8064516,50 L47.5806452,50 C48.916129,50 50,48.916129 50,47.5806452 L50,26.6129032 L40.3225806,26.6129032 L40.3225806,27.4193548 C41.9354839,28.2564516 42.7419355,29.6612903 42.7419355,31.4516129 C42.7419355,34.1233871 40.575,36.2903226 37.9032258,36.2903226 C35.2306452,36.2903226 33.0645161,34.1233871 33.0645161,31.4516129 C33.0645161,29.6612903 33.8709677,28.2564516 35.483871,27.4193548 L35.483871,26.6129032 L25.8064516,26.6129032" id="Shape"></path>
                <path d="M50,24.1935484 L50,2.41935484 C50,1.08387097 48.916129,0 47.5806452,0 L26.6129032,0 L26.6129032,9.67741935 L27.4193548,9.67741935 C28.2564516,8.23225806 29.6612903,7.25806452 31.4516129,7.25806452 C34.1233871,7.25806452 36.2903226,9.42419355 36.2903226,12.0967742 C36.2903226,14.7693548 34.1233871,16.9354839 31.4516129,16.9354839 C29.6612903,16.9354839 28.2564516,15.9612903 27.4193548,14.516129 L26.6129032,14.516129 L26.6129032,24.1935484" id="Shape"></path>
            </g>
        </g>
    </g>
</svg>