<svg width="72" height="72" viewBox="0 0 72 72" fill="none" xmlns="http://www.w3.org/2000/svg">
<path d="M23.389 51.5565H27.1668C27.9181 51.5556 28.6383 51.2567 29.1696 50.7259C29.7004 50.1946 29.9993 49.4744 30.0002 48.723V44.9452C29.9993 44.1938 29.7004 43.4737 29.1696 42.9424C28.6383 42.4115 27.9181 42.1126 27.1668 42.1118H23.389C22.8674 42.1118 22.4445 42.5347 22.4445 43.0562V50.6119C22.4445 50.8624 22.544 51.1027 22.7211 51.2798C22.8982 51.4569 23.1385 51.5565 23.389 51.5565ZM24.3334 44.0008H27.1668C27.6879 44.0016 28.1104 44.4241 28.1112 44.9452V48.7231C28.1104 49.2442 27.6879 49.6667 27.1668 49.6675H24.3334V44.0008ZM34.7224 51.5565H36.6113C37.3627 51.5556 38.0828 51.2567 38.6141 50.7259C39.1449 50.1946 39.4439 49.4744 39.4447 48.723V44.9452C39.4439 44.1938 39.1449 43.4737 38.6141 42.9424C38.0828 42.4115 37.3627 42.1126 36.6113 42.1118H34.7224C33.9711 42.1126 33.2509 42.4115 32.7196 42.9424C32.1888 43.4736 31.8899 44.1938 31.889 44.9452V48.723C31.8899 49.4744 32.1888 50.1946 32.7196 50.7259C33.2509 51.2567 33.9711 51.5556 34.7224 51.5565ZM33.778 44.9452C33.7788 44.4241 34.2013 44.0016 34.7224 44.0008H36.6113C37.1325 44.0016 37.5549 44.4241 37.5558 44.9452V48.7231C37.5549 49.2442 37.1325 49.6667 36.6113 49.6675H34.7224C34.2013 49.6667 33.7788 49.2442 33.778 48.7231V44.9452ZM57.3893 38.334H54.5559V20.3891C54.5559 20.1387 54.4564 19.8983 54.2793 19.7212L44.8348 10.2766C44.6577 10.0995 44.4174 10 44.1669 10H17.7223C17.2007 10 16.7778 10.4229 16.7778 10.9445V38.334H13.9445C13.4229 38.334 13 38.7569 13 39.2784V54.3899C13 54.6403 13.0995 54.8807 13.2766 55.0577C13.4537 55.2348 13.694 55.3343 13.9445 55.3343H16.7778V61.9456C16.7778 62.196 16.8773 62.4364 17.0544 62.6135C17.2315 62.7906 17.4718 62.8901 17.7223 62.8901H53.6115C53.8619 62.8901 54.1023 62.7906 54.2793 62.6135C54.4564 62.4364 54.5559 62.196 54.5559 61.9456V55.3343H57.3893C57.6397 55.3343 57.8801 55.2348 58.0572 55.0577C58.2342 54.8807 58.3337 54.6403 58.3337 54.3899V39.2784C58.3337 39.028 58.2342 38.7876 58.0572 38.6106C57.8801 38.4335 57.6397 38.334 57.3893 38.334ZM45.1114 13.2252L51.3313 19.4452H45.1114V13.2252ZM18.6667 11.8895H43.2225V20.3897C43.2225 20.6401 43.322 20.8804 43.4991 21.0575C43.6762 21.2346 43.9165 21.3341 44.1669 21.3341H52.667V38.3345H18.6667V11.8895ZM52.667 61.0017H18.6667V55.3349H52.667V61.0017ZM56.4448 53.4459H14.8889V40.2234H56.4448V53.4459ZM41.3336 48.7236V44.9458C41.3344 44.1944 41.6334 43.4742 42.1642 42.943C42.6955 42.4121 43.4156 42.1132 44.167 42.1123H46.0559C46.8072 42.1132 47.5274 42.4121 48.0587 42.943C48.5895 43.4742 48.8884 44.1944 48.8893 44.9458C48.8893 45.4673 48.4664 45.8902 47.9448 45.8902C47.4233 45.8902 47.0004 45.4673 47.0004 44.9458C46.9995 44.4246 46.5771 44.0021 46.0559 44.0013H44.167C43.6459 44.0021 43.2234 44.4246 43.2226 44.9458V48.7236C43.2234 49.2448 43.6459 49.6672 44.167 49.6681H46.0559C46.5771 49.6672 46.9995 49.2448 47.0004 48.7236C47.0004 48.2021 47.4233 47.7792 47.9448 47.7792C48.4664 47.7792 48.8893 48.2021 48.8893 48.7236C48.8884 49.475 48.5895 50.1952 48.0587 50.7264C47.5274 51.2573 46.8072 51.5562 46.0559 51.557H44.167C43.4156 51.5562 42.6955 51.2573 42.1642 50.7264C41.6334 50.1952 41.3344 49.475 41.3336 48.7236ZM22.4445 26.0565C22.4445 25.5349 22.8674 25.112 23.389 25.112H47.9448C48.4663 25.112 48.8892 25.5349 48.8892 26.0565C48.8892 26.578 48.4663 27.0009 47.9448 27.0009H23.389C22.8674 27.0009 22.4445 26.578 22.4445 26.0565ZM48.8892 31.7232C48.8892 31.9737 48.7897 32.214 48.6126 32.3911C48.4355 32.5682 48.1952 32.6677 47.9448 32.6677H23.389C22.8674 32.6677 22.4445 32.2448 22.4445 31.7232C22.4445 31.2017 22.8674 30.7788 23.389 30.7788H47.9448C48.1952 30.7788 48.4355 30.8783 48.6126 31.0554C48.7897 31.2325 48.8892 31.4728 48.8892 31.7232Z" fill="#333333"/>
</svg>
